<svg xmlns="http://www.w3.org/2000/svg" version="1.1" xmlns:xlink="http://www.w3.org/1999/xlink" xmlns:svgjs="http://svgjs.dev/svgjs" width="2000" height="429" viewBox="0 0 2000 429"><g transform="matrix(1,0,0,1,-1.2121212121212466,-0.9852333268348161)"><svg viewBox="0 0 396 85" data-background-color="#ffffff" preserveAspectRatio="xMidYMid meet" height="100" width="100" xmlns="http://www.w3.org/2000/svg" xmlns:xlink="http://www.w3.org/1999/xlink"><g id="tight-bounds" transform="matrix(1,0,0,1,0.2400000000000091,0.19520940042181678)"><svg viewBox="0 0 395.52 84.60958119915637" height="84.60958119915637" width="395.52"><g><svg viewBox="0 0 395.52 84.60958119915637" height="84.60958119915637" width="395.52"><g><svg viewBox="0 0 395.52 84.60958119915637" height="100%" width="100%"><g id="textblocktransform"><svg viewBox="0 0 395.52 84.60958119915637" height="84.60958119915637" width="395.52" id="textblock"><g><svg viewBox="0 0 395.52 84.60958119915637" height="84.60958119915637" width="395.52"><g transform="matrix(1,0,0,1,0,0)"><svg width="395.52" viewBox="3 -35 165.94 35.5" height="84.60958119915637" data-palette-color="#ff908b"><path d="M19.65-4.4L19.65-4.4 23.25-4.4 23.25-14.9 18.1-14.9 18.1-19.3 27.95-19.3 27.95 0 20.25 0Q12.2 0 7.63-4.58 3.05-9.15 3-17.5L3-17.5Q3.05-25.85 7.63-30.43 12.2-35 20.25-35L20.25-35 26-35 26-30.6 19.65-30.6Q14.1-30.6 11.13-26.93 8.15-23.25 8.05-17.5L8.05-17.5Q8.15-11.75 11.13-8.08 14.1-4.4 19.65-4.4ZM33.7-9.5L33.7-9.5 33.7-35 38.2-35 38.2-9.5Q38.2-7.7 38.62-6.58 39.05-5.45 39.95-4.98 40.85-4.5 41.7-4.35 42.55-4.2 43.95-4.2L43.95-4.2 43.95 0Q38.35 0 36.02-2.15 33.7-4.3 33.7-9.5ZM60.55-14.1L60.55-14.1 60.55-9.6Q58.65-11.05 55.9-11.05L55.9-11.05Q53.55-11.05 52.25-10.13 50.95-9.2 50.95-7.5L50.95-7.5Q50.95-4.2 55.85-4.2L55.85-4.2 62.45-4.2 62.45-13.75Q62.45-19.8 56.55-19.8L56.55-19.8 48.55-19.8 48.55-24 56.8-24Q61.65-24 64.25-21.6 66.85-19.2 66.85-14.7L66.85-14.7 66.85 0 55.7 0Q51.45 0 48.95-1.9 46.45-3.8 46.45-7.45 46.45-11.1 49.1-13 51.75-14.9 55.75-14.9L55.75-14.9Q58-14.9 60.55-14.1ZM91.09-4.2L91.09-35 95.59-35 95.59 0 83.84 0Q78.39 0 74.99-3.48 71.59-6.95 71.59-12.25L71.59-12.25Q71.59-17.45 75.12-20.98 78.64-24.5 83.49-24.5L83.49-24.5Q86.59-24.5 89.29-23L89.29-23 89.29-18.5Q86.79-20.3 83.49-20.3L83.49-20.3Q80.49-20.3 78.42-18.07 76.34-15.85 76.34-12.25L76.34-12.25Q76.34-8.6 78.32-6.4 80.29-4.2 83.84-4.2L83.84-4.2 91.09-4.2ZM122.64 0.5L122.64 0.5Q118.94-2.35 117.69-5.25 116.44-8.15 115.84-13.8L115.84-13.8 115.34-13.8Q114.74-8.15 113.49-5.25 112.24-2.35 108.54 0.5L108.54 0.5Q105.09-1.2 103.07-5.65 101.04-10.1 100.69-16.65L100.69-16.65 100.34-24 104.79-24 105.19-16.85Q105.64-8.65 108.44-4.95L108.44-4.95Q109.19-5.8 109.84-6.85 110.49-7.9 110.94-9.18 111.39-10.45 111.72-11.43 112.04-12.4 112.32-13.93 112.59-15.45 112.69-16.15 112.79-16.85 112.97-18.4 113.14-19.95 113.19-20.15L113.19-20.15 117.99-20.15Q118.04-19.95 118.22-18.4 118.39-16.85 118.49-16.15 118.59-15.45 118.87-13.93 119.14-12.4 119.47-11.43 119.79-10.45 120.24-9.18 120.69-7.9 121.34-6.85 121.99-5.8 122.74-4.95L122.74-4.95Q125.54-8.65 125.99-16.85L125.99-16.85 126.39-24 130.84-24 130.49-16.65Q130.14-10.1 128.12-5.65 126.09-1.2 122.64 0.5ZM142.09-24L142.09 0 137.69 0 137.69-19.8 133.59-19.8 135.59-24 142.09-24ZM137.49-29L137.49-29Q136.84-29.85 136.84-30.85 136.84-31.85 137.49-32.68 138.14-33.5 139.49-33.5 140.84-33.5 141.49-32.68 142.14-31.85 142.14-30.85 142.14-29.85 141.49-29.03 140.84-28.2 139.49-28.2 138.14-28.2 137.49-29ZM149.04 0L149.04-24 157.69-24Q163.24-24 165.64-22.35L165.64-22.35Q167.79-20.9 168.36-18.88 168.94-16.85 168.94-13.55L168.94-13.55 168.94 0 164.54 0 164.54-13.5Q164.54-14.4 164.49-15.03 164.44-15.65 164.14-16.63 163.84-17.6 163.29-18.23 162.74-18.85 161.69-19.33 160.64-19.8 159.14-19.8L159.14-19.8 153.44-19.8 153.44 0 149.04 0Z" opacity="1" transform="matrix(1,0,0,1,0,0)" fill="#ff908b" class="wordmark-text-0" data-fill-palette-color="primary" id="text-0"></path></svg></g></svg></g></svg></g></svg></g></svg></g><defs></defs></svg><rect width="395.52" height="84.60958119915637" fill="none" stroke="none" visibility="hidden"></rect></g></svg></g></svg>