<svg xmlns="http://www.w3.org/2000/svg" version="1.1" xmlns:xlink="http://www.w3.org/1999/xlink" xmlns:svgjs="http://svgjs.dev/svgjs" width="128" height="128" viewBox="0 0 128 128"><g transform="matrix(0.5722222222222222,0,0,0.5722222222222222,27.42319884559886,12.333870967741937)"><svg viewBox="0 0 110 155" data-background-color="#ffffff" preserveAspectRatio="xMidYMid meet" height="180" width="128" xmlns="http://www.w3.org/2000/svg" xmlns:xlink="http://www.w3.org/1999/xlink"><g id="tight-bounds" transform="matrix(1,0,0,1,-0.06821428571430488,0.25)"><svg viewBox="0 0 110.1364285714286 154.5" height="154.5" width="110.1364285714286"><g><svg viewBox="0 0 110.1364285714286 154.5" height="154.5" width="110.1364285714286"><g><svg viewBox="0 0 110.1364285714286 154.5" height="154.5" width="110.1364285714286"><g id="textblocktransform"><svg viewBox="0 0 110.1364285714286 154.5" height="154.5" width="110.1364285714286" id="textblock"><g><svg viewBox="0 0 110.1364285714286 154.5" height="154.5" width="110.1364285714286"><g transform="matrix(1,0,0,1,0,0)"><svg width="110.1364285714286" viewBox="3 -35 24.95 35" height="154.5" data-palette-color="#ff908b"><path d="M19.65-4.4L19.65-4.4 23.25-4.4 23.25-14.9 18.1-14.9 18.1-19.3 27.95-19.3 27.95 0 20.25 0Q12.2 0 7.63-4.58 3.05-9.15 3-17.5L3-17.5Q3.05-25.85 7.63-30.43 12.2-35 20.25-35L20.25-35 26-35 26-30.6 19.65-30.6Q14.1-30.6 11.13-26.93 8.15-23.25 8.05-17.5L8.05-17.5Q8.15-11.75 11.13-8.08 14.1-4.4 19.65-4.4Z" opacity="1" transform="matrix(1,0,0,1,0,0)" fill="#ff908b" class="wordmark-text-0" data-fill-palette-color="primary" id="text-0"></path></svg></g></svg></g></svg></g></svg></g></svg></g><defs></defs></svg><rect width="110.1364285714286" height="154.5" fill="none" stroke="none" visibility="hidden"></rect></g></svg></g></svg>